# AST/ASF file generated using VICON BodyLanguage
# -----------------------------------------------
:version 1.10
:name VICON
:units
  mass 1.0
  length 0.45
  angle deg
:documentation
   .ast/.asf automatically generated from VICON data using
   VICON BodyBuilder and BodyLanguage model FoxedUp or BRILLIANT.MOD
:root
   order TX TY TZ RX RY RZ
   axis XYZ
   position 0 0 0  
   orientation 0 0 0 
:bonedata
  begin
     id 1 
     name lhipjoint
     direction 0.570549 -0.739093 0.358072 
     length 2.41801 
     axis 0 0 0  XYZ
  end
  begin
     id 2 
     name lfemur
     direction 0.34202 -0.939693 0  
     length 7.44434  
     axis 0 0 20  XYZ
    dof rx ry rz
    limits (-160.0 20.0)
           (-70.0 70.0)
           (-60.0 70.0)
  end
  begin
     id 3 
     name ltibia
     direction 0.34202 -0.939693 0   
     length 7.60047   
     axis 0 0 20   XYZ
    dof rx
    limits (-10.0 170.0)
  end
  begin
     id 4 
     name lfoot
     direction 0.0909041 -0.249757 0.964032   
     length 2.03437   
     axis -90 7.62852e-016 20   XYZ
    dof rx rz
    limits (-45.0 90.0)
           (-70.0 20.0)
  end
  begin
     id 5 
     name ltoes
     direction 1.53547e-011 -4.2174e-011 1   
     length 1.02054   
     axis -90 7.62852e-016 20   XYZ
    dof rx
    limits (-90.0 20.0)
  end
  begin
     id 6 
     name rhipjoint
     direction -0.558096 -0.746754 0.361784   
     length 2.3932  
     axis 0 0 0  XYZ 
  end
  begin
     id 7 
     name rfemur
     direction -0.34202 -0.939693 0   
     length 7.3886   
     axis 0 0 -20   XYZ
    dof rx ry rz
    limits (-160.0 20.0)
           (-70.0 70.0)
           (-70.0 60.0)
  end
  begin
     id 8 
     name rtibia
     direction -0.34202 -0.939693 0   
     length 7.4839   
     axis 0 0 -20   XYZ
    dof rx
    limits (-10.0 170.0)
 end
 begin
     id 9 
     name rfoot
     direction -0.114619 -0.314914 0.942174   
     length 2.25127  
     axis -90 -7.62852e-016 -20   XYZ
    dof rx rz
    limits (-45.0 90.0)
           (-20.0 70.0)
  end
  begin
     id 10 
     name rtoes
     direction -1.53518e-011 -4.21881e-011 1   
     length 1.11821   
     axis -90 -7.62852e-016 -20   XYZ
    dof rx
    limits (-90.0 20.0)
  end
  begin
     id 11 
     name lowerback
     direction -0.00902269 0.996426 -0.0839821   
     length 2.25052   
     axis 0 0 0   XYZ
    dof rx ry rz
    limits (-20.0 45.0)
           (-30.0 30.0)
           (-30.0 30.0)
  end
  begin
     id 12 
     name upperback
     direction 0.0370973 0.999169 -0.0168941   
     length 2.24876   
     axis 0 0 0   XYZ
    dof rx ry rz
    limits (-20.0 45.0)
           (-30.0 30.0)
           (-30.0 30.0)
  end
  begin
     id 13 
     name thorax
     direction 0.0402726 0.998931 0.0227027   
     length 2.26408   
     axis 0 0 0   XYZ
    dof rx ry rz
    limits (-20.0 45.0)
           (-30.0 30.0)
           (-30.0 30.0)
  end
  begin
     id 14 
     name lowerneck
     direction -0.0733697 0.98508 0.155675   
     length 1.58204   
     axis 0 0 0   XYZ
    dof rx ry rz
    limits (-20.0 45.0)
           (-30.0 30.0)
           (-30.0 30.0)
  end
  begin
     id 15 
     name upperneck
     direction 0.0426554 0.993501 -0.105526   
     length 1.61222   
     axis 0 0 0   XYZ
    dof rx ry rz
    limits (-20.0 45.0)
           (-30.0 30.0)
           (-30.0 30.0)
  end
  begin
     id 16
     name head
     direction 0.020792 0.998384 -0.0528868  
     length 1.61527  
     axis 0 0 0   XYZ
    dof rx ry rz
    limits (-20.0 45.0)
           (-30.0 30.0)
           (-30.0 30.0)
  end
  begin
     id 17 
     name lclavicle
     direction 0.967109 0.155462 -0.201325  
     length 3.59357  
     axis 0 0 0   XYZ
    dof ry rz
    limits (-20.0 10.0)
           (0.0 20.0)
  end
  begin
     id 18 
     name lhumerus
     direction 1 -4.48968e-011 2.38195e-027   
     length 5.38154   
     axis 180 -30 -90   XYZ
    dof rx ry rz
    limits (-60.0 90.0)
           (-90.0 90.0)
           (-90.0 90.0)
  end
  begin
     id 19
     name lradius
     direction 1 -4.48961e-011 4.85371e-027   
     length 3.33312   
     axis 180 -30 -90   XYZ
    dof rx
    limits (-10.0 170.0)
  end
  begin
     id 20
     name lwrist
     direction 1 -4.48961e-011 4.76515e-027   
     length 1.66656   
     axis -3.27502e-015 90 90   XYZ
    dof ry
    limits (-180.0 0.0)
 end
  begin
     id 21 
     name lhand
     direction 1 -4.48951e-011 9.53074e-027   
     length 0.710789   
     axis -6.08098e-015 90 90   XYZ
    dof rx rz
    limits (-90.0 90.0)
           (-45.0 45.0)
  end
  begin
     id 22 
     name lfingers
     direction 1 -4.48953e-011 1.90613e-026   
     length 0.573057   
     axis -1.21619e-014 90 90   XYZ
    dof rx
    limits (0.0 90.0)
  end
  begin
     id 23
     name lthumb
     direction 0.707107 -6.34973e-011 0.707107   
     length 0.822798   
     axis -90 45 -9.86923e-015   XYZ
    dof rx rz
    limits (-45.0 45.0)
           (-45.0 45.0)
  end
  begin
     id 24 
     name rclavicle
     direction -0.9585 0.265289 -0.104398   
     length 3.42039  
     axis 0 0 0   XYZ 
    dof ry rz
    limits (-10.0 20.0)
           (-20.0 0.0)
  end
  begin
     id 25 
     name rhumerus
     direction -1 -4.48977e-011 2.21478e-027  
     length 5.16954   
     axis 180 30 90   XYZ
    dof rx ry rz
    limits (-90.0 60.0)
           (-90.0 90.0)
           (-90.0 90.0)
  end
  begin
     id 26 
     name rradius
     direction -1 -4.48967e-011 5.63677e-027   
     length 3.38287   
     axis 180 30 90   XYZ
    dof rx
    limits (-10.0 170.0)
  end
  begin
     id 27 
     name rwrist
     direction -1 -4.48967e-011 4.76501e-027   
     length 1.69144   
     axis -3.27502e-015 -90 -90   XYZ
    dof ry
    limits (-180.0 0.0)
  end
  begin
     id 28
     name rhand
     direction -1 -4.48902e-011 9.53292e-027   
     length 0.817967   
     axis -6.08098e-015 -90 -90   XYZ
    dof rx rz
    limits (-90.0 90.0)
           (-45.0 45.0)
  end
  begin
     id 29
     name rfingers
     direction -1 -4.49012e-011 1.90561e-026   
     length 0.659466   
     axis -1.21619e-014 -90 -90   XYZ
    dof rx
    limits (0.0 90.0)
  end
  begin
     id 30
     name rthumb
     direction -0.707107 -6.34944e-011 0.707107   
     length 0.946865   
     axis -90 -45 9.86923e-015   XYZ
    dof rx rz
    limits (-45.0 45.0)
           (-45.0 45.0)
  end
:hierarchy
  begin
    root lhipjoint rhipjoint lowerback
    lhipjoint lfemur
    lfemur ltibia
    ltibia lfoot
    lfoot ltoes
    rhipjoint rfemur
    rfemur rtibia
    rtibia rfoot
    rfoot rtoes
    lowerback upperback
    upperback thorax
    thorax lowerneck lclavicle rclavicle
    lowerneck upperneck
    upperneck head
    lclavicle lhumerus
    lhumerus lradius
    lradius lwrist
    lwrist lhand lthumb
    lhand lfingers
    rclavicle rhumerus
    rhumerus rradius
    rradius rwrist
    rwrist rhand rthumb
    rhand rfingers
  end

#!OML:ASF F:\twosubjects\two\wednesday\Session 1\Justin1.ASF
:FULLY-SPECIFIED
:DEGREES
1
root 9.14996 17.6625 -14.2182 0.733681 -4.86127 -2.15386
lowerback 1.20961 0.656466 -0.987543
upperback 0.032893 0.875011 1.97637
thorax -0.690083 0.443929 2.56436
lowerneck -19.0104 -4.54708 -11.8537
upperneck 16.6933 -5.07436 10.3879
head 8.93783 -2.06892 4.85578
rclavicle 1.04921e-014 5.36719e-015
rhumerus -30.8789 -8.03481 -82.5888
rradius 33.311
rwrist -8.76355
rhand -10.8457 15.9855
rfingers 7.12502
rthumb 15.1691 -13.4385
lclavicle 1.04921e-014 5.36719e-015
lhumerus -30.7658 14.7618 82.115
lradius 26.4296
lwrist -15.0281
lhand 5.94905 39.4275
lfingers 7.12502
lthumb 31.2748 66.7762
rfemur 0.978633 0.216099 17.3563
rtibia 9.91288
rfoot -8.49021 -6.40597
rtoes -4.11589
lfemur -2.24822 -1.46006 -13.2124
ltibia 18.5307
lfoot -14.4592 6.71234
ltoes -14.1894
2
root 9.13307 17.6667 -14.2181 0.806807 -4.7174 -2.01527
lowerback 1.01941 0.680799 -1.08981
upperback 0.0159357 0.90651 1.96738
thorax -0.603927 0.459369 2.61428
lowerneck -18.4637 -4.55914 -11.7658
upperneck 16.298 -5.09225 10.1079
head 8.69771 -2.11317 4.73219
rclavicle 2.168e-015 3.18055e-015
rhumerus -31.1088 -7.55421 -82.6564
rradius 33.9677
rwrist -9.31388
rhand -11.1757 15.9908
rfingers 7.12502
rthumb 14.8512 -13.4569
lclavicle 2.168e-015 3.18055e-015
lhumerus -30.7255 14.9304 82.3998
lradius 26.4371
lwrist -15.8679
lhand 3.98931 37.2039
lfingers 7.12502
lthumb 29.4055 64.8972
rfemur 0.681935 0.0661251 17.255
rtibia 10.3199
rfoot -8.63333 -6.36821
rtoes -3.50143
lfemur -2.27731 -1.69313 -13.3323
ltibia 18.3393
lfoot -14.3784 6.77365
ltoes -13.3427
3
root 9.11898 17.6661 -14.2063 0.708577 -4.62877 -1.99329
lowerback 0.968851 0.690423 -0.97496
upperback -0.0235624 0.921094 1.95771
thorax -0.614842 0.466734 2.5398
lowerneck -18.2353 -4.50226 -11.5309
upperneck 16.2412 -5.00993 9.67472
head 8.60933 -2.10886 4.55127
rclavicle 3.39487e-015 4.37326e-015
rhumerus -31.455 -7.04318 -82.7714
rradius 34.3871
rwrist -9.61293
rhand -11.6055 16.6478
rfingers 7.12502
rthumb 14.4372 -12.8301
lclavicle 3.39487e-015 4.37326e-015
lhumerus -30.9937 15.2376 82.5631
lradius 26.5709
lwrist -16.5744
lhand 2.2532 35.4661
lfingers 7.12502
lthumb 27.7467 63.4385
rfemur 1.02677 0.181343 17.2558
rtibia 9.94606
rfoot -8.51488 -6.54588
rtoes -3.05725
lfemur -2.30793 -1.89479 -13.3809
ltibia 18.6668
lfoot -14.3606 7.03501
ltoes -13.6991
4
root 9.09797 17.6624 -14.2022 0.613492 -4.49261 -2.22395
lowerback 1.06577 0.614608 -0.694235
upperback 0.00238286 0.823277 2.00037
thorax -0.634199 0.416877 2.42637
lowerneck -18.9224 -4.46131 -11.3028
upperneck 16.7177 -4.94225 9.54284
head 8.87536 -2.06066 4.48249
rclavicle 1.76421e-015 -1.31198e-014
rhumerus -31.5504 -6.43558 -83.0664
rradius 35.0569
rwrist -10.2324
rhand -11.214 17.1246
rfingers 7.12502
rthumb 14.8143 -12.3259
lclavicle 1.76421e-015 -1.31198e-014
lhumerus -30.9791 15.0229 82.7883
lradius 27.1171
lwrist -16.8362
lhand 2.12101 35.175
lfingers 7.12502
lthumb 27.6203 63.1677
rfemur 1.47126 0.250726 17.6228
rtibia 9.4298
rfoot -8.35284 -6.73816
rtoes -3.0645
lfemur -2.45257 -1.9181 -13.0736
ltibia 19.0802
lfoot -14.31 7.11626
ltoes -15.7946
5
root 9.07603 17.6602 -14.2124 0.650423 -4.21244 -2.71355
lowerback 1.22892 0.500846 -0.273683
upperback -0.0196479 0.679694 2.19477
thorax -0.738891 0.34474 2.39063
lowerneck -19.6219 -4.52216 -11.3905
upperneck 17.3293 -4.97771 9.61595
head 9.21877 -2.06072 4.52827
rclavicle -5.62809e-015 3.20043e-014
rhumerus -31.7029 -5.51212 -83.2629
rradius 36.0546
rwrist -10.9393
rhand -10.597 17.6108
rfingers 7.12502
rthumb 15.4087 -11.7949
lclavicle -5.62809e-015 3.20043e-014
lhumerus -30.9148 14.4204 83.3182
lradius 27.9319
lwrist -16.3538
lhand 1.97962 35.2887
lfingers 7.12502
lthumb 27.4851 63.3029
rfemur 1.87972 0.17305 18.2865
rtibia 8.61715
rfoot -7.99729 -6.89754
rtoes -2.43274
lfemur -2.85789 -1.91088 -12.4085
ltibia 19.6276
lfoot -14.4458 6.91513
ltoes -17.5386
6
root 9.0473 17.6689 -14.2435 0.959363 -4.05789 -3.8055
lowerback 1.33243 0.507425 0.64384
upperback -0.134222 0.709547 2.58278
thorax -0.909503 0.357709 2.27191
lowerneck -19.5942 -4.63294 -11.4834
upperneck 17.4598 -5.09684 9.53232
head 9.2732 -2.1329 4.49929
rclavicle -3.60918e-015 -6.16232e-015
rhumerus -31.828 -4.87214 -83.2395
rradius 36.9916
rwrist -10.8518
rhand -9.93463 17.9923
rfingers 7.12502
rthumb 16.0466 -11.3632
lclavicle -3.60918e-015 -6.16232e-015
lhumerus -30.8958 13.2087 84.079
lradius 28.6816
lwrist -14.9354
lhand 0.631268 34.9774
lfingers 7.12502
lthumb 26.1949 63.1899
rfemur 1.76922 0.225048 19.6904
rtibia 8.04397
rfoot -7.57824 -7.09502
rtoes -1.84363
lfemur -3.53631 -2.02318 -10.9859
ltibia 20.0864
lfoot -14.639 6.63511
ltoes -15.2352
7
root 9.02551 17.6763 -14.2624 1.09193 -3.92614 -4.18534
lowerback 1.35321 0.495195 0.962144
upperback -0.158185 0.70074 2.71625
thorax -0.943333 0.352109 2.23033
lowerneck -19.2231 -4.64014 -11.3535
upperneck 17.1932 -5.13688 9.38146
head 9.11139 -2.16671 4.41403
rclavicle -7.15004e-015 2.5842e-015
rhumerus -31.8874 -4.53515 -83.2977
rradius 37.9529
rwrist -10.6722
rhand -9.59943 17.9336
rfingers 7.12502
rthumb 16.3694 -11.3956
lclavicle -7.15004e-015 2.5842e-015
lhumerus -30.9646 12.4964 84.4107
lradius 29.6911
lwrist -14.471
lhand 0.652481 34.9151
lfingers 7.12502
lthumb 26.2152 63.1246
rfemur 1.73314 0.297611 20.26
rtibia 7.71488
rfoot -7.28865 -7.38409
rtoes -2.77173
lfemur -3.9947 -2.24211 -10.4244
ltibia 20.4855
lfoot -14.8276 6.50755
ltoes -12.4797
8
root 9.01878 17.669 -14.2588 0.952983 -3.75985 -3.74322
lowerback 1.36311 0.461632 0.723857
upperback -0.163297 0.650743 2.5252
thorax -0.95285 0.327943 2.16859
lowerneck -18.7155 -4.54252 -11.1808
upperneck 16.8356 -5.06168 9.27166
head 8.88155 -2.14239 4.35262
rclavicle -6.70277e-015 1.98785e-016
rhumerus -32.1421 -4.28003 -83.4379
rradius 38.9894
rwrist -10.7135
rhand -9.49809 17.7627
rfingers 7.12502
rthumb 16.4669 -11.5584
lclavicle -6.70277e-015 1.98785e-016
lhumerus -31.2191 12.1754 84.4506
lradius 31.018
lwrist -14.552
lhand 1.66819 35.1659
lfingers 7.12502
lthumb 27.1872 63.2271
rfemur 2.15027 0.323345 19.7845
rtibia 7.19185
rfoot -7.04144 -7.66516
rtoes -3.65153
lfemur -4.19402 -2.18138 -10.926
ltibia 21.1218
lfoot -15.1034 6.55867
ltoes -13.8681
9
root 9.00243 17.6621 -14.2717 1.09505 -3.78829 -4.11192
lowerback 1.46632 0.541314 1.22607
upperback -0.387718 0.774868 2.52241
thorax -1.23817 0.387499 1.87898
lowerneck -18.4437 -4.45792 -11.0538
upperneck 16.7907 -5.00902 9.27837
head 8.80844 -2.11522 4.34181
rclavicle 6.18407e-015 1.55052e-014
rhumerus -32.6242 -4.00471 -83.604
rradius 40.1902
rwrist -10.6944
rhand -9.32778 17.643
rfingers 7.12502
rthumb 16.6309 -11.6645
lclavicle 6.18407e-015 1.55052e-014
lhumerus -31.4438 11.1076 84.7184
lradius 32.0977
lwrist -13.7784
lhand 1.46889 35.0116
lfingers 7.12502
lthumb 26.9966 63.1026
rfemur 1.76309 0.556698 20.2896
rtibia 7.56664
rfoot -7.10759 -7.8879
rtoes -3.55763
lfemur -4.43707 -1.89189 -10.4368
ltibia 21.2539
lfoot -15.1116 6.56794
ltoes -15.4367
10
root 8.96764 17.6578 -14.3289 1.78475 -4.07939 -5.9838
lowerback 1.61511 0.720977 2.82916
upperback -0.754889 1.07501 3.09974
thorax -1.68874 0.522946 1.56308
lowerneck -18.7326 -4.4922 -11.2094
upperneck 17.178 -5.04584 9.46507
head 9.00605 -2.1179 4.43485
rclavicle -5.65604e-015 1.98785e-015
rhumerus -32.9915 -3.39344 -83.6613
rradius 41.6083
rwrist -10.8471
rhand -9.56464 17.8245
rfingers 7.12502
rthumb 16.4029 -11.502
lclavicle -5.65604e-015 1.98785e-015
lhumerus -31.3206 10.2915 85.1271
lradius 32.9931
lwrist -13.7165
lhand 1.68468 34.8177
lfingers 7.12502
lthumb 27.203 62.8765
rfemur 0.518022 1.10629 22.655
rtibia 8.23261
rfoot -7.07143 -8.14185
rtoes -3.11156
lfemur -5.29415 -1.41333 -8.06893
ltibia 21.2899
lfoot -14.9081 6.3312
ltoes -15.1376
11
root 8.96924 17.6615 -14.289 1.22804 -3.45481 -4.34942
lowerback 1.37941 0.549092 1.29082
upperback -0.439357 0.787784 2.71462
thorax -1.24466 0.394351 2.04066
lowerneck -19.1042 -4.50733 -11.5306
upperneck 17.4306 -5.04283 9.89082
head 9.18018 -2.08502 4.64483
rclavicle -3.3079e-015 2.5842e-015
rhumerus -32.9976 -2.68295 -83.5977
rradius 43.0317
rwrist -11.0489
rhand -9.68777 18.1614
rfingers 7.12502
rthumb 16.2843 -11.1748
lclavicle -3.3079e-015 2.5842e-015
lhumerus -30.8952 10.0999 85.4485
lradius 34.0168
lwrist -14.6354
lhand 3.14455 34.9849
lfingers 7.12502
lthumb 28.5987 62.8169
rfemur 1.03536 0.626768 20.7585
rtibia 8.75617
rfoot -7.76751 -8.29568
rtoes -3.08513
lfemur -4.69144 -1.74553 -9.94938
ltibia 21.1923
lfoot -15.1899 5.93439
ltoes -14.3702
12
root 8.96188 17.6591 -14.286 1.07292 -3.22903 -3.85033
lowerback 1.27516 0.508001 0.765258
upperback -0.299483 0.716229 2.64616
thorax -1.04636 0.361576 2.26857
lowerneck -19.1103 -4.43078 -11.2942
upperneck 17.2892 -4.95761 9.72263
head 9.11118 -2.04604 4.55419
rclavicle 3.6154e-015 2.78299e-015
rhumerus -32.9296 -2.03433 -83.4973
rradius 44.4675
rwrist -11.273
rhand -8.78769 17.5015
rfingers 7.12502
rthumb 17.1508 -11.7615
lclavicle 3.6154e-015 2.78299e-015
lhumerus -30.586 9.32734 85.7584
lradius 35.2536
lwrist -14.7091
lhand 4.11182 35.2715
lfingers 7.12502
lthumb 29.5225 62.9442
rfemur 1.00018 0.58998 20.2302
rtibia 9.22736
rfoot -8.13493 -8.47559
rtoes -3.26886
lfemur -4.49407 -1.91459 -10.4941
ltibia 21.0157
lfoot -15.0839 5.87807
ltoes -14.6676
13
root 8.95706 17.6565 -14.2787 0.89139 -2.86017 -3.29613
lowerback 1.21534 0.430556 0.261599
upperback -0.204037 0.600506 2.55718
thorax -0.915219 0.305577 2.46346
lowerneck -18.378 -4.38695 -9.80331
upperneck 16.3867 -4.93371 7.82464
head 8.57775 -2.14787 3.63081
rclavicle 7.60351e-015 -9.14409e-015
rhumerus -33.0035 -1.40285 -83.3353
rradius 46.0489
rwrist -11.4647
rhand -9.83817 18.4127
rfingers 7.12502
rthumb 16.1395 -10.9353
lclavicle 7.60351e-015 -9.14409e-015
lhumerus -30.3862 7.99323 86.1165
lradius 36.6533
lwrist -14.1121
lhand 4.15435 35.3231
lfingers 7.12502
lthumb 29.563 62.9886
rfemur 0.917169 0.412532 19.6052
rtibia 9.8973
rfoot -8.54304 -8.51102
rtoes -3.47458
lfemur -4.11401 -2.09943 -11.112
ltibia 20.4657
lfoot -14.6955 5.77391
ltoes -16.4295
14
root 8.94875 17.659 -14.2725 0.698938 -2.53626 -2.88981
lowerback 1.23252 0.359873 -0.0926439
upperback -0.105224 0.498252 2.47119
thorax -0.821629 0.254912 2.57652
lowerneck -19.2787 -4.73078 -11.1212
upperneck 17.5604 -5.30136 9.17233
head 9.25407 -2.25012 4.28393
rclavicle 5.11249e-015 -2.98177e-014
rhumerus -33.0013 -0.941654 -83.2518
rradius 47.7208
rwrist -11.5529
rhand -10.5853 18.7194
rfingers 7.12502
rthumb 15.4199 -10.6855
lclavicle 5.11249e-015 -2.98177e-014
lhumerus -30.1252 6.8206 86.3989
lradius 38.0192
lwrist -13.8932
lhand 3.8912 34.7739
lfingers 7.12502
lthumb 29.3118 62.4836
rfemur 1.03209 0.285053 19.1713
rtibia 10.1896
rfoot -8.80546 -8.58611
rtoes -3.39208
lfemur -3.87483 -2.22249 -11.5139
ltibia 20.2542
lfoot -14.6489 5.41061
ltoes -15.773
